ply
format ascii 1.0
element vertex 200
property float x
property float y
property float z
property uchar red
property uchar green
property uchar blue
property uchar alpha
end_header
50.1179 -3.09093 -1.90907 255 0 0 255
-49.5016 3.07191 -8.07191 0 255 0 255
48.6265 -6.10141 11.1014 255 0 0 255
-49.8543 6.17737 -1.17737 0 255 0 255
45.5511 -8.89508 23.8951 255 0 0 255
-51.0415 9.40619 5.59381 0 255 0 255
40.9385 -11.3384 36.3384 255 0 0 255
-53.0308 12.8461 12.1539 0 255 0 255
34.8561 -13.3022 48.3022 255 0 0 255
-55.7747 16.5814 18.4186 0 255 0 255
27.3914 -14.6632 59.6632 255 0 0 255
-59.2112 20.6921 24.3079 0 255 0 255
18.6507 -15.3057 70.3057 255 0 0 255
-63.2645 25.2523 29.7477 0 255 0 255
8.75845 -15.1224 80.1224 255 0 0 255
-67.846 30.3295 34.6705 0 255 0 255
-2.14467 -14.0165 89.0165 255 0 0 255
-72.8553 35.9835 39.0165 0 255 0 255
-13.903 -11.9022 96.9022 255 0 0 255
-78.1818 42.2653 42.7347 0 255 0 255
-26.3478 -8.70628 103.706 255 0 0 255
-83.7055 49.2165 45.7835 0 255 0 255
-39.2991 -4.36862 109.369 255 0 0 255
-89.2991 56.8686 48.1314 0 255 0 255
-52.5676 1.15663 113.843 255 0 0 255
-94.8294 65.2423 49.7577 0 255 0 255
-65.9569 7.90059 117.099 255 0 0 255
-100.159 74.3469 50.6531 0 255 0 255
-79.2658 15.8791 119.121 255 0 0 255
-105.148 84.1804 50.8197 0 255 0 255
-92.2904 25.0923 119.908 255 0 0 255
-109.655 94.7287 50.2713 0 255 0 255
-104.827 35.5246 119.475 255 0 0 255
-113.542 105.966 49.0338 0 255 0 255
-116.673 47.1447 117.855 255 0 0 255
-116.673 117.855 47.1447 0 255 0 255
-127.631 59.9053 115.095 255 0 0 255
-118.915 130.347 44.6531 0 255 0 255
-137.51 73.7442 111.256 255 0 0 255
-120.145 143.381 41.6193 0 255 0 255
-146.128 88.5842 106.416 255 0 0 255
-120.246 156.885 38.1145 0 255 0 255
-153.316 104.334 100.666 255 0 0 255
-119.114 170.78 34.2198 0 255 0 255
-158.915 120.889 94.1114 255 0 0 255
-116.653 184.974 30.0257 0 255 0 255
-162.784 138.131 86.8686 255 0 0 255
-112.784 199.369 25.6314 0 255 0 255
-164.797 155.934 79.0662 255 0 0 255
-107.44 213.857 21.1434 0 255 0 255
-164.85 174.158 70.8423 255 0 0 255
-100.571 228.325 16.6747 0 255 0 255
-162.855 192.656 62.3439 255 0 0 255
-92.1447 242.656 12.3439 0 255 0 255
-158.75 211.275 53.7251 255 0 0 255
-82.1454 256.727 8.27312 0 255 0 255
-152.492 229.854 45.1456 255 0 0 255
-70.5768 270.412 4.58759 0 255 0 255
-144.064 248.231 36.769 255 0 0 255
-57.4614 283.586 1.4137 0 255 0 255
-133.472 266.239 28.7614 255 0 0 255
-42.8413 296.122 -1.12222 0 255 0 255
-120.747 283.711 21.2891 255 0 0 255
-26.778 307.895 -2.89537 0 255 0 255
-105.945 300.483 14.5173 255 0 0 255
-9.3527 318.784 -3.78396 0 255 0 255
-89.1464 316.392 8.60812 255 0 0 255
9.33437 328.671 -3.67066 0 255 0 255
-70.4552 331.281 3.7188 255 0 0 255
29.1642 337.444 -2.44404 0 255 0 255
-50 345 -1.22034e-05 255 0 0 255
50 345 -7.55696e-06 0 255 0 255
-27.9316 357.406 -2.40599 255 0 0 255
71.6878 351.243 3.75686 0 255 0 255
-4.42283 368.367 -3.36682 255 0 0 255
94.058 356.088 8.91197 0 255 0 255
20.3335 377.762 -2.76174 255 0 0 255
116.926 359.461 15.5395 0 255 0 255
46.1256 385.483 -0.483078 255 0 0 255
140.095 361.299 23.7014 0 255 0 255
72.7249 391.438 3.56239 255 0 0 255
163.356 361.554 33.446 0 255 0 255
99.8879 395.548 9.45218 255 0 0 255
186.49 360.193 44.8075 0 255 0 255
127.358 397.753 17.247 255 0 0 255
209.273 357.195 57.805 0 255 0 255
154.869 398.01 26.9896 255 0 0 255
231.473 352.558 72.4416 0 255 0 255
182.145 396.296 38.7043 255 0 0 255
252.855 346.296 88.7043 0 255 0 255
208.906 392.604 52.396 255 0 0 255
273.185 338.436 106.564 0 255 0 255
234.87 386.95 68.05 255 0 0 255
292.228 329.027 125.973 0 255 0 255
259.753 379.369 85.6314 255 0 0 255
309.753 318.131 146.869 0 255 0 255
283.276 369.915 105.085 255 0 0 255
325.538 305.829 169.171 0 255 0 255
305.164 358.663 126.337 255 0 0 255
339.366 292.217 192.783 0 255 0 255
325.15 345.708 149.292 255 0 0 255
351.032 277.407 217.593 0 255 0 255
342.982 331.164 173.836 255 0 0 255
360.346 261.528 243.472 0 255 0 255
358.417 315.163 199.837 255 0 0 255
367.132 244.722 270.278 0 255 0 255
371.231 297.855 227.145 255 0 0 255
371.231 227.145 297.856 0 255 0 255
381.22 279.407 255.594 255 0 0 255
372.505 208.965 326.035 0 255 0 255
388.201 259.999 285.001 255 0 0 255
370.836 190.363 354.638 0 255 0 255
392.013 239.828 315.172 255 0 0 255
366.131 171.527 383.473 0 255 0 255
392.523 219.102 345.898 255 0 0 255
358.321 152.656 412.344 0 255 0 255
389.623 198.04 376.96 255 0 0 255
347.362 133.954 441.046 0 255 0 255
383.238 176.869 408.132 255 0 0 255
333.238 115.631 469.369 0 255 0 255
373.319 155.822 439.178 255 0 0 255
315.962 97.8995 497.101 0 255 0 255
359.853 135.14 469.86 255 0 0 255
295.574 80.9729 524.027 0 255 0 255
342.855 115.065 499.936 255 0 0 255
272.145 65.0645 549.936 0 255 0 255
322.377 95.837 529.163 255 0 0 255
245.772 50.385 574.615 0 255 0 255
298.501 77.6981 557.302 255 0 0 255
216.586 37.1401 597.86 0 255 0 255
271.343 60.8843 584.116 255 0 0 255
184.741 25.529 619.471 0 255 0 255
241.053 45.6259 609.374 255 0 0 255
150.422 15.7422 639.258 0 255 0 255
207.811 32.1443 632.856 255 0 0 255
113.842 7.95979 657.04 0 255 0 255
171.83 20.6505 654.35 255 0 0 255
75.2372 2.34922 672.651 0 255 0 255
133.35 11.3426 673.658 255 0 0 255
34.8691 -0.936224 685.937 0 255 0 255
92.6414 4.40358 690.597 255 0 0 255
-6.97811 -1.75926 696.76 0 255 0 255
49.9999 -0.000184663 705 255 0 0 255
-50.0001 -0.000177114 705 0 255 0 255
5.74529 -1.72121 716.722 255 0 0 255
-93.8742 4.44164 710.559 0 255 0 255
-39.7809 -0.632385 725.633 255 0 0 255
-138.262 11.6464 713.354 0 255 0 255
-86.2182 3.37144 731.629 255 0 0 255
-182.811 21.6727 713.328 0 255 0 255
-133.19 10.3721 734.628 255 0 0 255
-227.159 34.5566 710.444 0 255 0 255
-180.306 20.4268 734.574 255 0 0 255
-270.937 50.3105 704.69 0 255 0 255
-227.167 33.5675 731.433 255 0 0 255
-313.77 68.9228 696.078 0 255 0 255
-273.367 49.7995 725.201 255 0 0 255
-355.282 90.3575 684.643 0 255 0 255
-318.496 69.1015 715.899 255 0 0 255
-395.1 114.553 670.447 0 255 0 255
-362.145 91.425 703.575 255 0 0 255
-432.856 141.425 653.575 0 255 0 255
-403.909 116.694 688.306 255 0 0 255
-468.188 170.862 634.139 0 255 0 255
-443.392 144.806 670.194 255 0 0 255
-500.75 202.729 612.271 0 255 0 255
-480.208 175.631 649.369 255 0 0 255
-530.208 236.869 588.132 0 255 0 255
-513.984 209.014 625.986 255 0 0 255
-556.246 273.1 561.901 0 255 0 255
-544.371 244.773 600.227 255 0 0 255
-578.573 311.22 533.781 0 255 0 255
-571.035 282.704 572.296 255 0 0 255
-596.917 351.006 503.995 0 255 0 255
-593.673 322.579 542.421 255 0 0 255
-611.038 392.216 472.785 0 255 0 255
-612.007 364.149 510.852 255 0 0 255
-620.722 434.59 440.41 0 255 0 255
-625.79 407.145 477.856 255 0 0 255
-625.79 477.856 407.145 0 255 0 255
-634.81 451.282 443.719 255 0 0 255
-626.095 521.723 373.277 0 255 0 255
-638.892 496.258 408.743 255 0 0 255
-621.527 565.894 339.106 0 255 0 255
-637.898 541.759 373.241 255 0 0 255
-612.016 610.061 304.94 0 255 0 255
-631.73 587.462 337.539 255 0 0 255
-597.528 653.908 271.093 0 255 0 255
-620.332 633.032 301.969 255 0 0 255
-578.07 697.117 237.883 0 255 0 255
-603.692 678.132 266.869 255 0 0 255
-553.692 739.369 205.631 0 255 0 255
-581.842 722.422 232.579 255 0 0 255
-524.484 780.345 174.656 0 255 0 255
-554.856 765.562 199.439 255 0 0 255
-490.577 819.73 145.271 0 255 0 255
-522.855 807.215 167.785 255 0 0 255
-452.145 857.215 117.785 0 255 0 255
-486.004 847.052 137.949 255 0 0 255
-409.399 892.504 92.4969 0 255 0 255
